<svg width="278" height="88" viewBox="0 0 278 88" fill="none" xmlns="http://www.w3.org/2000/svg">
<path d="M16.2606 21.2052C15.4215 21.1558 14.6811 21.0077 14.0394 20.7609C13.3977 20.4648 12.8548 20.1439 12.4105 19.7984C11.9663 19.4036 11.6208 19.0334 11.374 18.6878C11.1766 18.293 11.0778 17.9474 11.0778 17.6513C11.0778 17.3058 11.374 17.0837 11.9663 16.9849C13.3484 16.8862 14.8045 16.6147 16.3346 16.1705C17.8648 15.6769 19.4196 15.1586 20.9991 14.6157C22.5292 14.1221 24.01 13.6779 25.4415 13.283C26.9222 12.8387 28.3043 12.6166 29.5876 12.6166C30.6242 12.6166 31.6361 12.7894 32.6233 13.1349C33.6104 13.4311 34.4989 13.9493 35.2887 14.6897C36.1278 15.4301 36.7941 16.442 37.2877 17.7253C37.7813 19.0087 38.0281 20.6129 38.0281 22.5379C38.0281 24.1667 37.732 25.6969 37.1396 27.1283C36.5967 28.5104 35.8563 29.7937 34.9185 30.9784C33.8326 32.3604 32.3271 33.8906 30.4021 35.5688C28.5264 37.1976 26.1818 38.6044 23.3684 39.789C24.5036 40.332 25.5402 41.1711 26.478 42.3064C27.4158 43.3923 27.8847 44.799 27.8847 46.5266C27.8847 48.5997 27.1937 50.5 25.8116 52.2276C24.4296 53.9058 22.7514 55.3619 20.777 56.5959C18.852 57.7805 16.8282 58.6937 14.7058 59.3354C12.5833 59.977 10.757 60.2979 9.22686 60.2979C8.23967 60.2979 7.25248 60.0758 6.26529 59.6315C5.32746 59.2367 4.46367 58.6937 3.67392 58.0027C2.93353 57.3116 2.31654 56.5466 1.82294 55.7075C1.32935 54.819 1.08255 53.9305 1.08255 53.042C1.08255 52.0055 1.42806 50.5247 2.1191 48.5997C2.85949 46.5266 3.74796 44.3301 4.78451 42.0102C5.82106 39.6409 6.95633 37.2717 8.19031 34.9024C9.4243 32.5332 10.7323 30.1886 12.1144 27.8687C13.4965 25.4994 14.8785 23.2783 16.2606 21.2052ZM12.8548 37.7159C16.1619 36.9262 19.1728 35.8649 21.8876 34.5322C24.6517 33.1502 26.9963 31.6694 28.9213 30.0899C30.8463 28.461 32.3271 26.8322 33.3636 25.2033C34.4496 23.5251 34.9925 22.0196 34.9925 20.6869C34.9925 19.5023 34.647 18.6878 33.956 18.2436C33.3143 17.75 32.5245 17.5032 31.5867 17.5032C30.8463 17.5032 30.0072 17.6266 29.0694 17.8734C28.1809 18.0708 27.2678 18.3176 26.3299 18.6138C25.3921 18.91 24.4543 19.2308 23.5164 19.5763C22.5786 19.9218 21.6901 20.218 20.851 20.4648V21.1311C20.851 22.7106 20.0859 24.8825 18.5558 27.6466C17.0257 30.3614 15.1253 33.7178 12.8548 37.7159ZM15.4462 41.9362C15.1994 41.9855 14.9526 42.0102 14.7058 42.0102C14.459 42.0102 14.2122 42.0102 13.9654 42.0102C12.8301 42.0102 11.7936 41.8128 10.8557 41.4179C10.3128 42.4051 9.74514 43.491 9.15282 44.6756C8.56051 45.8109 7.99288 46.9708 7.44992 48.1555C6.90697 49.3401 6.46273 50.4753 6.11722 51.5613C5.7717 52.6472 5.59894 53.6344 5.59894 54.5228C5.59894 55.6087 6.21593 56.1517 7.44992 56.1517C8.98006 56.1517 10.7076 55.7815 12.6327 55.0411C14.607 54.3007 16.4333 53.3876 18.1116 52.3016C19.8391 51.1664 21.2953 49.9324 22.4799 48.5997C23.6645 47.267 24.2568 46.0083 24.2568 44.8237C24.2568 43.8859 23.8126 43.1208 22.9241 42.5285C22.085 41.8868 20.6289 41.5166 18.5558 41.4179L15.4462 41.9362ZM46.6213 53.9305C45.4367 55.4607 44.0299 56.8427 42.4011 58.0767C40.8216 59.2613 39.1187 59.8536 37.2924 59.8536C35.318 59.8536 33.8125 59.1873 32.776 57.8546C31.7394 56.4725 31.2211 54.7203 31.2211 52.5978C31.2211 50.9689 31.542 49.2167 32.1836 47.341C32.8253 45.416 33.8125 43.491 35.1452 41.566C38.1068 37.321 40.9696 34.2854 43.7338 32.4591C46.4979 30.5835 48.8178 29.6456 50.6934 29.6456C52.1249 29.6456 53.2108 30.1392 53.9512 31.1264C54.6916 32.1136 55.0618 33.2489 55.0618 34.5322C56.049 32.9034 56.814 31.6941 57.357 30.9043C57.8999 30.0652 58.3688 29.6456 58.7637 29.6456C59.208 29.6456 59.6028 30.0899 59.9484 30.9784C60.3432 31.8175 60.5407 32.7306 60.5407 33.7178C60.5407 35.0505 60.0471 36.63 59.0599 38.4563C58.1221 40.2333 57.0855 42.1089 55.9502 44.0833C54.7656 46.107 53.6797 48.1308 52.6925 50.1545C51.7547 52.1289 51.2858 53.9305 51.2858 55.5594C51.2858 57.0402 51.8534 57.7805 52.9887 57.7805C54.1733 57.7805 55.4566 57.2376 56.8387 56.1517C58.2701 55.0658 59.6769 53.585 61.0589 51.7093C62.441 49.8337 63.749 47.6619 64.983 45.1939C66.217 42.7259 67.2782 40.1099 68.1667 37.3457C67.3276 37.0496 66.7106 36.6053 66.3157 36.013C65.9702 35.4207 65.7975 34.7544 65.7975 34.014C65.7975 33.0761 66.0442 32.0643 66.5378 30.9784C67.0314 29.8924 67.5991 28.9053 68.2407 28.0168C68.9318 27.1283 69.6475 26.3879 70.3879 25.7956C71.1283 25.2033 71.7699 24.9071 72.3129 24.9071C73.2014 24.9071 73.6456 25.6475 73.6456 27.1283C73.6456 28.0168 73.4975 29.078 73.2014 30.312C72.9052 31.546 72.5597 32.854 72.1648 34.2361C73.4975 34.088 74.8302 33.7178 76.1629 33.1255C77.545 32.5332 78.9518 31.7434 80.3832 30.7562C80.9755 30.312 81.4197 30.0899 81.7159 30.0899C81.9133 30.0899 82.1848 30.2626 82.5303 30.6082C82.8758 30.9043 83.1967 31.3239 83.4928 31.8668C83.789 32.3604 84.0358 32.9281 84.2332 33.5697C84.48 34.162 84.6034 34.7544 84.6034 35.3467C84.6034 35.8403 84.5294 36.3092 84.3813 36.7534C84.2826 37.1976 84.0358 37.6419 83.6409 38.0861C82.4069 39.4682 81.2223 40.8996 80.087 42.3804C79.0011 43.8612 78.0386 45.3173 77.1995 46.7487C76.4097 48.1801 75.7681 49.5622 75.2745 50.8949C74.8302 52.2276 74.6081 53.4122 74.6081 54.4488C74.6081 56.8674 75.4966 58.0767 77.2735 58.0767C78.0139 58.0767 78.779 57.8052 79.5687 57.2623C80.4079 56.67 81.2223 55.9049 82.012 54.9671C82.8018 54.0292 83.5422 52.9433 84.2332 51.7093C84.9736 50.4753 85.64 49.192 86.2323 47.8593C86.3804 47.5138 86.5778 47.341 86.8246 47.341C87.022 47.341 87.1948 47.5631 87.3429 48.0074C87.5403 48.4516 87.639 49.0439 87.639 49.7843C87.639 51.1664 87.2935 52.4991 86.6025 53.7824C85.9114 55.0164 85.0476 56.127 84.0111 57.1142C82.9745 58.052 81.8146 58.7924 80.5313 59.3354C79.2973 59.9277 78.1373 60.2238 77.0514 60.2238C74.6822 60.2238 72.9052 59.5575 71.7206 58.2248C70.5853 56.8427 70.0177 55.0411 70.0177 52.8199C70.0177 51.2404 70.3138 49.6609 70.9062 48.0814C71.5478 46.4525 72.3376 44.873 73.2754 43.3429C74.2626 41.8128 75.3238 40.3567 76.4591 38.9746C77.6437 37.5432 78.7543 36.2351 79.7909 35.0505C78.162 36.0377 76.5825 36.7534 75.0524 37.1976C73.5222 37.5925 72.1895 37.79 71.0542 37.79C70.1658 40.4554 69.0552 43.1208 67.7225 45.7862C66.3898 48.4516 64.909 50.8455 63.2801 52.968C61.6513 55.0411 59.899 56.744 58.0233 58.0767C56.1477 59.3601 54.198 60.0017 52.1742 60.0017C50.2986 60.0017 48.8918 59.4341 47.954 58.2988C47.0655 57.1636 46.6213 55.7075 46.6213 53.9305ZM51.804 33.4216C51.2611 33.4216 50.5207 33.7425 49.5829 34.3842C48.645 34.9765 47.5838 35.7909 46.3992 36.8274C45.2639 37.864 44.104 39.098 42.9193 40.5294C41.7347 41.9115 40.6488 43.3923 39.6616 44.9718C38.7238 46.5513 37.934 48.1801 37.2924 49.8584C36.7 51.4872 36.4039 53.0914 36.4039 54.6709C36.4039 56.4972 36.9962 57.4104 38.1808 57.4104C39.6616 57.4104 41.3151 56.4232 43.1414 54.4488C44.9678 52.425 46.8187 49.7103 48.6944 46.3045C50.1752 43.6391 51.2611 41.4179 51.9521 39.6409C52.6432 37.8146 52.9887 36.3832 52.9887 35.3467C52.9887 34.1127 52.5938 33.471 51.804 33.4216ZM108.475 47.8593C106.748 51.7587 104.798 54.7449 102.626 56.818C100.504 58.8418 98.3319 59.8536 96.1107 59.8536C94.1363 59.8536 92.5075 59.3847 91.2241 58.4469C89.9901 57.5091 89.0276 56.2257 88.3366 54.5969L86.1895 59.4835C86.0414 59.9277 85.844 60.1498 85.5972 60.1498C85.2023 60.1498 84.8074 59.7056 84.4125 58.8171C84.0177 57.9286 83.8202 56.9661 83.8202 55.9296C83.8202 55.3866 83.8943 54.7696 84.0423 54.0786C84.1411 53.3382 84.3385 52.4991 84.6346 51.5613C84.9802 50.5247 85.6218 48.9699 86.5597 46.8968C87.5469 44.8237 88.7068 42.4791 90.0395 39.8631C91.3722 37.247 92.8036 34.5076 94.3338 31.6447C95.8639 28.7325 97.3694 25.9437 98.8502 23.2783C100.331 20.6129 101.713 18.1942 102.996 16.0224C104.329 13.8013 105.415 12.0983 106.254 10.9137C106.55 10.4695 106.871 10.2474 107.217 10.2474C107.611 10.2474 107.957 10.6422 108.253 11.432C108.599 12.1724 108.771 12.9868 108.771 13.8753C108.771 14.9118 108.599 15.9484 108.253 16.9849C107.908 18.0215 107.365 19.2555 106.624 20.6869C105.884 22.069 104.946 23.7472 103.811 25.7216C102.626 27.7453 101.219 30.238 99.5906 33.1995C101.812 31.1264 103.934 30.0899 105.958 30.0899C107.735 30.0899 109.043 30.7316 109.882 32.0149C110.77 33.2982 111.215 34.9765 111.215 37.0496C111.215 38.6291 110.968 40.3567 110.474 42.2323C110.03 44.0586 109.364 45.9343 108.475 47.8593ZM104.847 33.1255C103.712 33.1255 102.503 33.6438 101.219 34.6803C99.9854 35.6675 98.7021 37.0002 97.3694 38.6784C96.086 40.3567 94.8027 42.3064 93.5194 44.5275C92.236 46.6993 91.002 48.9946 89.8174 51.4132C89.9161 52.5978 90.2616 53.7331 90.8539 54.819C91.4956 55.9049 92.4581 56.4478 93.7415 56.4478C94.9755 56.4478 96.3822 55.7075 97.9617 54.2267C99.5412 52.7459 101.293 50.0558 103.218 46.1564C104.354 43.8859 105.144 41.9362 105.588 40.3073C106.032 38.6291 106.254 37.2223 106.254 36.0871C106.254 34.2608 105.785 33.2736 104.847 33.1255ZM160.789 52.5238C159.9 54.7449 158.518 56.5712 156.642 58.0027C154.767 59.4341 152.817 60.1498 150.793 60.1498C148.424 60.1498 146.672 59.4588 145.537 58.0767C144.401 56.6946 143.834 54.9424 143.834 52.8199C143.834 51.2898 144.13 49.7103 144.722 48.0814C145.364 46.4525 146.154 44.8484 147.091 43.2689C148.079 41.6894 149.14 40.1839 150.275 38.7525C151.46 37.321 152.57 36.013 153.607 34.8284C151.978 35.8649 150.374 36.6053 148.794 37.0496C147.215 37.4444 145.857 37.6419 144.722 37.6419C143.143 40.8996 141.464 43.9105 139.687 46.6747C137.91 49.3894 136.035 51.734 134.06 53.7084C132.135 55.6828 130.112 57.2376 127.989 58.3729C125.867 59.4588 123.67 60.0017 121.4 60.0017C118.241 60.0017 115.847 59.0639 114.218 57.1882C112.589 55.2632 111.775 52.894 111.775 50.0805C111.775 47.0695 112.392 44.3301 113.626 41.8621C114.909 39.3448 116.39 37.1976 118.068 35.4207C119.796 33.6438 121.548 32.2617 123.325 31.2745C125.151 30.2873 126.607 29.7937 127.693 29.7937C128.582 29.7937 129.445 30.0158 130.284 30.4601C131.124 30.9043 131.889 31.4719 132.58 32.163C133.271 32.8047 133.814 33.5204 134.209 34.3101C134.653 35.0999 134.875 35.8156 134.875 36.4573C134.875 37.5925 134.579 38.8759 133.986 40.3073C133.394 41.6894 132.604 42.9974 131.617 44.2314C130.63 45.4654 129.47 46.5019 128.137 47.341C126.854 48.1308 125.497 48.5256 124.065 48.5256C123.127 48.5256 122.165 48.3529 121.178 48.0074C120.19 47.6619 119.203 47.0695 118.216 46.2304C117.476 48.3035 117.105 50.1792 117.105 51.8574C117.105 53.7824 117.525 55.2879 118.364 56.3738C119.253 57.4104 120.413 57.9286 121.844 57.9286C123.818 57.9286 125.793 57.287 127.767 56.0036C129.741 54.7203 131.592 53.0667 133.32 51.043C135.097 49.0192 136.701 46.7981 138.133 44.3794C139.613 41.9115 140.847 39.5175 141.835 37.1976C141.045 36.8521 140.477 36.4079 140.132 35.8649C139.836 35.322 139.687 34.705 139.687 34.014C139.687 33.1255 139.934 32.163 140.428 31.1264C140.921 30.0405 141.514 29.0287 142.205 28.0908C142.945 27.153 143.686 26.3879 144.426 25.7956C145.216 25.1539 145.907 24.8331 146.499 24.8331C147.437 24.8331 147.906 25.5735 147.906 27.0543C147.906 27.8934 147.758 28.9299 147.462 30.1639C147.165 31.3979 146.746 32.7059 146.203 34.088C148.868 33.6931 151.558 32.5332 154.273 30.6082C154.52 30.4107 154.742 30.2626 154.94 30.1639C155.186 30.0158 155.433 29.9418 155.68 29.9418C155.877 29.9418 156.124 30.1146 156.42 30.4601C156.766 30.8056 157.087 31.2498 157.383 31.7928C157.679 32.3357 157.926 32.9281 158.123 33.5697C158.37 34.2114 158.493 34.8037 158.493 35.3467C158.493 36.3339 158.148 37.2223 157.457 38.0121C156.272 39.3448 155.137 40.7268 154.051 42.1583C152.965 43.5897 151.978 45.0211 151.089 46.4525C150.25 47.8346 149.584 49.2167 149.09 50.5987C148.597 51.9315 148.35 53.2148 148.35 54.4488C148.35 56.818 149.238 58.0027 151.015 58.0027C151.805 58.0027 152.595 57.7312 153.385 57.1882C154.224 56.5959 155.038 55.8308 155.828 54.893C156.618 53.9552 157.358 52.8693 158.049 51.6353C158.79 50.4013 159.456 49.118 160.048 47.7853C160.196 47.4397 160.394 47.267 160.641 47.267C161.183 47.267 161.455 47.9827 161.455 49.4141C161.455 50.4013 161.233 51.4379 160.789 52.5238ZM118.882 44.6016C119.672 45.0952 120.487 45.342 121.326 45.342C122.51 45.342 123.67 44.8977 124.806 44.0093C125.941 43.0714 126.953 41.9855 127.841 40.7515C128.779 39.4682 129.519 38.2095 130.062 36.9755C130.605 35.7415 130.877 34.779 130.877 34.088C130.877 33.397 130.531 33.0514 129.84 33.0514C129.248 33.0514 128.508 33.3229 127.619 33.8659C126.78 34.3595 125.867 35.0752 124.88 36.013C123.942 36.9015 122.979 37.9874 121.992 39.2707C121.054 40.5047 120.215 41.8621 119.475 43.3429C119.376 43.5403 119.277 43.7378 119.179 43.9352C119.08 44.182 118.981 44.4041 118.882 44.6016ZM156.682 49.118C157.521 48.8712 158.261 48.7478 158.903 48.7478C160.285 48.7478 161.618 49.1673 162.901 50.0064C164.234 50.8455 165.616 51.7834 167.047 52.8199C168.479 53.8565 169.984 54.7943 171.564 55.6334C173.192 56.4725 174.994 56.8921 176.968 56.8921C178.499 56.8921 179.782 56.6206 180.819 56.0776C181.855 55.4853 182.373 54.6709 182.373 53.6344C182.373 52.9927 181.954 52.3263 181.115 51.6353C180.325 50.8949 179.313 50.1298 178.079 49.3401C176.845 48.5503 175.512 47.7112 174.081 46.8227C172.65 45.9343 171.317 44.9471 170.083 43.8612C168.849 42.7753 167.812 41.6153 166.973 40.3813C166.183 39.098 165.789 37.6912 165.789 36.1611C165.789 33.6438 166.406 31.2251 167.64 28.9053C168.923 26.5854 170.478 24.4876 172.304 22.6119C174.18 20.7363 176.154 19.1074 178.227 17.7253C180.35 16.2939 182.225 15.2327 183.854 14.5416C184.792 14.1468 185.73 13.8259 186.668 13.5791C187.605 13.3323 188.494 13.2089 189.333 13.2089C190.518 13.2089 191.579 13.5298 192.517 14.1715C193.504 14.8131 194.343 15.6029 195.034 16.5407C195.774 17.4785 196.317 18.4904 196.663 19.5763C197.058 20.6129 197.255 21.526 197.255 22.3158C197.255 23.5004 196.984 24.6357 196.441 25.7216C195.947 26.8075 195.454 27.6713 194.96 28.3129C194.368 29.152 193.751 30.0899 193.109 31.1264C192.467 32.1136 191.875 33.0514 191.332 33.9399C190.789 34.8777 190.296 35.6675 189.851 36.3092C189.456 36.9015 189.185 37.1976 189.037 37.1976C188.494 37.1976 187.951 36.7534 187.408 35.8649C186.914 34.9271 186.668 33.9646 186.668 32.9774C186.668 32.5332 186.717 32.0149 186.816 31.4226C186.964 30.8303 187.186 30.2133 187.482 29.5716C187.828 28.8312 188.296 27.9921 188.889 27.0543C189.53 26.0671 190.172 25.0799 190.814 24.0927C191.455 23.1055 191.998 22.1677 192.443 21.2792C192.936 20.3414 193.183 19.5763 193.183 18.984C193.183 18.0955 192.665 17.6513 191.628 17.6513C190.838 17.6513 189.802 17.9228 188.519 18.4657C187.235 18.9593 185.853 19.675 184.372 20.6129C182.892 21.5013 181.386 22.5626 179.856 23.7965C178.375 24.9812 177.018 26.2645 175.784 27.6466C174.599 29.0287 173.612 30.4601 172.822 31.9409C172.082 33.3723 171.712 34.779 171.712 36.1611C171.712 37.2964 172.082 38.3329 172.822 39.2707C173.612 40.2086 174.575 41.097 175.71 41.9362C176.845 42.7259 178.079 43.491 179.412 44.2314C180.695 44.9718 181.904 45.7122 183.04 46.4525C184.175 47.1929 185.113 47.958 185.853 48.7478C186.643 49.4882 187.038 50.3026 187.038 51.1911C187.038 52.0302 186.766 53.0174 186.223 54.1526C185.73 55.2385 184.965 56.2751 183.928 57.2623C182.892 58.2001 181.584 58.9899 180.004 59.6315C178.474 60.3226 176.672 60.6681 174.599 60.6681C171.786 60.6681 168.799 59.9277 165.64 58.4469C162.531 56.9661 159.495 54.4241 156.534 50.8209C156.188 50.4753 156.015 50.1545 156.015 49.8584C156.015 49.6116 156.238 49.3648 156.682 49.118ZM221.565 52.3016C221.022 53.3382 220.356 54.3501 219.566 55.3373C218.776 56.2751 217.888 57.1142 216.9 57.8546C215.963 58.595 214.951 59.1626 213.865 59.5575C212.779 60.0017 211.693 60.2238 210.607 60.2238C208.386 60.2238 206.732 59.7056 205.647 58.669C204.561 57.5831 204.018 56.127 204.018 54.3007C204.018 53.1161 204.24 51.8327 204.684 50.4507C205.128 49.0686 205.671 47.6865 206.313 46.3045C206.955 44.9224 207.67 43.565 208.46 42.2323C209.25 40.8996 209.965 39.6903 210.607 38.6044C211.249 37.4691 211.792 36.5066 212.236 35.7169C212.68 34.9271 212.902 34.3595 212.902 34.014C212.902 33.7672 212.779 33.6438 212.532 33.6438C212.137 33.6438 211.422 33.9399 210.385 34.5322C209.348 35.0752 208.189 35.8649 206.905 36.9015C205.622 37.938 204.289 39.172 202.907 40.6034C201.574 41.9855 200.39 43.5157 199.353 45.1939C198.81 46.0824 198.119 47.341 197.28 48.9699C196.441 50.5987 195.627 52.2276 194.837 53.8565C193.998 55.4853 193.257 56.9168 192.616 58.1507C191.974 59.3354 191.604 59.9277 191.505 59.9277C191.11 59.9277 190.715 59.5328 190.32 58.7431C189.926 57.9039 189.728 57.0402 189.728 56.1517C189.728 55.6087 189.802 54.9671 189.95 54.2267C190.049 53.4863 190.271 52.6472 190.617 51.7093C191.061 50.4753 191.826 48.7971 192.912 46.6747C193.998 44.5028 195.256 42.1089 196.688 39.4929C198.119 36.8768 199.674 34.1374 201.352 31.2745C203.03 28.4117 204.684 25.6722 206.313 23.0562C207.942 20.4401 209.472 18.0462 210.903 15.8744C212.384 13.7025 213.618 11.9996 214.605 10.7656C214.852 10.3708 215.173 10.1733 215.568 10.1733C215.963 10.1733 216.283 10.5435 216.53 11.2839C216.777 11.975 216.9 12.74 216.9 13.5791C216.9 14.7638 216.604 16.0718 216.012 17.5032C215.469 18.8853 214.679 20.4648 213.643 22.2417C212.656 23.9693 211.471 25.8943 210.089 28.0168C208.707 30.1392 207.177 32.5332 205.498 35.1986C206.14 34.5569 206.856 33.9399 207.646 33.3476C208.435 32.7059 209.2 32.1383 209.941 31.6447C210.731 31.1511 211.471 30.7809 212.162 30.5341C212.853 30.238 213.47 30.0899 214.013 30.0899C215 30.0899 215.889 30.5835 216.678 31.5707C217.517 32.5579 217.937 33.6931 217.937 34.9765C217.937 36.013 217.468 37.3951 216.53 39.1227C215.642 40.8502 214.655 42.6765 213.569 44.6016C212.433 46.5266 211.397 48.4269 210.459 50.3026C209.571 52.1782 209.126 53.8071 209.126 55.1892C209.126 56.0283 209.299 56.7193 209.645 57.2623C209.99 57.7559 210.533 58.0027 211.274 58.0027C212.014 58.0027 212.828 57.7065 213.717 57.1142C214.605 56.5219 215.469 55.7568 216.308 54.819C217.197 53.8318 218.036 52.7459 218.826 51.5613C219.665 50.3273 220.38 49.0686 220.973 47.7853C221.121 47.4397 221.343 47.267 221.639 47.267C222.231 47.267 222.527 47.8099 222.527 48.8958C222.527 49.8337 222.207 50.9689 221.565 52.3016ZM275.832 52.894C274.253 55.7568 272.155 57.8052 269.539 59.0392C266.923 60.2238 264.06 60.8162 260.95 60.8162C259.519 60.8162 258.162 60.6434 256.878 60.2979C255.644 59.9524 254.534 59.4588 253.546 58.8171C252.559 58.1754 251.745 57.3857 251.103 56.4478C250.511 55.4607 250.165 54.3501 250.067 53.1161C248.142 56.67 246.167 60.446 244.143 64.4441C242.169 68.4422 240.269 72.539 238.442 76.7346C238.196 77.1788 237.974 77.4009 237.776 77.4009C237.431 77.4009 237.085 76.9814 236.74 76.1423C236.394 75.3032 236.221 74.4394 236.221 73.5509C236.221 72.4156 236.517 70.8361 237.11 68.8124C237.455 67.6278 238.072 65.9989 238.961 63.9258C239.899 61.9021 240.96 59.6562 242.144 57.1882C243.378 54.7203 244.686 52.1536 246.068 49.4882C247.5 46.8227 248.882 44.2807 250.215 41.8621C248.487 43.1948 246.513 43.8612 244.292 43.8612C243.749 43.8612 243.403 43.8365 243.255 43.7871C242.811 45.6628 242.12 47.5631 241.182 49.4882C240.293 51.4132 239.208 53.1654 237.924 54.7449C236.69 56.3244 235.283 57.6078 233.704 58.595C232.174 59.5822 230.57 60.0758 228.891 60.0758C228.102 60.0758 227.213 59.8783 226.226 59.4835C225.239 59.0886 224.301 58.4963 223.412 57.7065C222.524 56.9168 221.784 55.9049 221.191 54.6709C220.599 53.4369 220.303 51.9561 220.303 50.2285C220.303 48.1554 220.747 45.9343 221.636 43.565C222.524 41.1958 223.709 39.0239 225.189 37.0496C226.67 35.0752 228.348 33.4463 230.224 32.163C232.1 30.8303 234.025 30.1639 235.999 30.1639C236.888 30.1639 237.628 30.3614 238.22 30.7562C238.862 31.1511 239.528 31.7928 240.219 32.6813C240.664 33.2736 241.108 33.7672 241.552 34.162C241.996 34.5569 242.367 35.0258 242.663 35.5688C243.008 36.0624 243.28 36.7041 243.477 37.4938C243.724 38.2836 243.847 39.3448 243.847 40.6775C243.847 40.8749 243.798 41.1217 243.699 41.4179L243.551 42.0102C244.736 42.0102 245.92 41.714 247.105 41.1217C248.29 40.4801 249.45 39.6409 250.585 38.6044C251.72 37.5185 252.806 36.2845 253.843 34.9024C254.929 33.5204 255.965 32.0643 256.952 30.5341C257.248 30.0899 257.545 29.8678 257.841 29.8678C258.236 29.8678 258.581 30.2626 258.877 31.0524C259.173 31.8421 259.321 32.6813 259.321 33.5697V34.014C260.309 33.0761 261.419 32.2617 262.653 31.5707C263.887 30.8796 265.121 30.5341 266.355 30.5341C267.194 30.5341 267.959 30.7562 268.65 31.2005C269.341 31.5953 269.934 32.1383 270.427 32.8293C270.97 33.5204 271.365 34.3348 271.612 35.2726C271.908 36.1611 272.056 37.0742 272.056 38.0121C272.056 39.9371 271.686 41.9855 270.946 44.1573C270.255 46.2798 269.391 48.3282 268.354 50.3026C267.318 52.2276 266.182 53.9552 264.948 55.4853C263.714 56.9661 262.579 58.0273 261.543 58.669C263.32 58.5703 264.924 58.2001 266.355 57.5584C267.836 56.9168 269.144 56.1023 270.279 55.1151C271.415 54.1279 272.402 53.042 273.241 51.8574C274.129 50.6234 274.87 49.3648 275.462 48.0814C275.659 47.5878 275.931 47.341 276.276 47.341C276.77 47.341 277.017 47.8346 277.017 48.8218C277.017 49.266 276.918 49.8584 276.721 50.5987C276.573 51.2898 276.276 52.0548 275.832 52.894ZM264.578 46.0083C265.516 44.1327 266.207 42.331 266.651 40.6034C267.096 38.8265 267.318 37.2964 267.318 36.013C267.318 34.0386 266.799 33.0514 265.763 33.0514C264.973 33.0514 264.134 33.3723 263.246 34.014C262.357 34.6556 261.419 35.5688 260.432 36.7534C259.494 37.8887 258.482 39.2461 257.396 40.8256C256.311 42.4051 255.175 44.1327 253.991 46.0083C253.546 47.1929 253.201 48.3529 252.954 49.4882C252.707 50.6234 252.584 51.66 252.584 52.5978C252.584 53.6837 252.781 54.6709 253.176 55.5594C253.571 56.4478 254.213 56.8921 255.101 56.8921C255.743 56.8921 256.459 56.6206 257.248 56.0776C258.038 55.4853 258.853 54.6956 259.692 53.7084C260.58 52.7212 261.419 51.5613 262.209 50.2285C263.048 48.8958 263.838 47.4891 264.578 46.0083ZM238.442 42.6765C237.11 41.9855 235.974 40.9983 235.037 39.715C234.099 38.4316 233.605 37.0742 233.556 35.6428C232.322 36.6794 231.162 37.938 230.076 39.4188C228.99 40.8996 228.028 42.4791 227.188 44.1573C226.399 45.7862 225.757 47.4397 225.263 49.118C224.819 50.7468 224.597 52.2276 224.597 53.5603C224.597 55.9789 225.387 57.1882 226.966 57.1882C227.707 57.1882 228.595 56.8674 229.632 56.2257C230.668 55.5347 231.73 54.5722 232.815 53.3382C233.901 52.0548 234.938 50.5247 235.925 48.7478C236.962 46.9215 237.801 44.8977 238.442 42.6765ZM238.961 40.8256C239.306 39.4929 239.479 38.2095 239.479 36.9755C239.479 35.0011 239.109 34.014 238.368 34.014C238.122 34.014 237.85 34.2608 237.554 34.7544C237.258 35.1986 237.11 35.8403 237.11 36.6794C237.11 37.3704 237.258 38.1108 237.554 38.9005C237.899 39.6409 238.368 40.2826 238.961 40.8256Z" fill="white"/>
</svg>
